<svg width="102" height="83" viewBox="0 0 102 83" fill="none" xmlns="http://www.w3.org/2000/svg">
<path d="M1.82477 65.2712C0.26468 62.9927 0.847064 59.8809 3.12557 58.3208L85.6374 1.8248C87.9159 0.264711 91.0277 0.847094 92.5878 3.1256L98.2374 11.3768C99.7975 13.6553 99.2151 16.7671 96.9366 18.3272L14.4248 74.8232C12.1463 76.3833 9.03447 75.8009 7.47437 73.5224L1.82477 65.2712Z" fill="#4362BF"/>
<path d="M12.8248 71.6216C11.2647 69.3431 11.8471 66.2313 14.1256 64.6712L88.3862 13.8248C90.6647 12.2647 93.7765 12.8471 95.3366 15.1256L100.986 23.3768C102.546 25.6553 101.964 28.7671 99.6854 30.3272L25.4248 81.1736C23.1463 82.7337 20.0345 82.1513 18.4744 79.8728L12.8248 71.6216Z" fill="#738FE5" fill-opacity="0.9"/>
</svg>
