<?xml version="1.0" encoding="UTF-8"?>
<svg xmlns="http://www.w3.org/2000/svg" xmlns:xlink="http://www.w3.org/1999/xlink" viewBox="0 0 30 30" width="30px" height="30px">
<g id="surface4920031">
<path style=" stroke:none;fill-rule:nonzero;fill:rgb(40.000001%,40.000001%,40.000001%);fill-opacity:1;" d="M 15 3 C 14.867188 3 14.730469 3.015625 14.597656 3.042969 L 4.628906 5.035156 L 4.625 5.039062 C 3.683594 5.214844 3 6.039062 3 7 L 3 23 C 3 23.960938 3.683594 24.785156 4.628906 24.964844 L 14.597656 26.957031 C 14.730469 26.984375 14.863281 27 15 27 C 16.105469 27 17 26.105469 17 25 L 17 5 C 17 3.894531 16.105469 3 15 3 Z M 19 5 L 19 9.34375 L 21 10.769531 L 26.9375 6.53125 C 26.726562 5.652344 25.941406 5 25 5 Z M 27 8.945312 L 21.578125 12.816406 C 21.40625 12.9375 21.203125 13 21 13 C 20.796875 13 20.59375 12.9375 20.421875 12.816406 L 19 11.800781 L 19 18.34375 C 19.996094 16.929688 21.636719 16 23.5 16 C 24.828125 16 26.050781 16.472656 27 17.257812 Z M 9.582031 10 C 10.601562 10 11.425781 10.453125 12.058594 11.355469 C 12.683594 12.257812 13 13.449219 13 14.929688 C 13 16.449219 12.671875 17.671875 12.023438 18.601562 C 11.367188 19.535156 10.515625 20 9.46875 20 C 8.445312 20 7.609375 19.550781 6.96875 18.648438 C 6.324219 17.746094 6 16.570312 6 15.125 C 6 13.597656 6.328125 12.359375 6.984375 11.414062 C 7.636719 10.472656 8.503906 10 9.582031 10 Z M 9.53125 11.996094 C 9.0625 11.996094 8.691406 12.273438 8.414062 12.820312 C 8.136719 13.375 8 14.101562 8 15.011719 C 8 15.929688 8.136719 16.65625 8.414062 17.191406 C 8.691406 17.726562 9.050781 17.996094 9.496094 17.996094 C 9.957031 17.996094 10.324219 17.738281 10.59375 17.21875 C 10.863281 16.695312 11 15.972656 11 15.050781 C 11 14.085938 10.867188 13.335938 10.605469 12.800781 C 10.34375 12.265625 9.984375 11.996094 9.53125 11.996094 Z M 23.5 18 C 21.570312 18 20 19.570312 20 21.5 C 20 23.429688 21.570312 25 23.5 25 C 25.429688 25 27 23.429688 27 21.5 C 27 19.570312 25.429688 18 23.5 18 Z M 23 19 L 24 19 L 24 21 L 26 21 L 26 22 L 23 22 Z M 23 19 "/>
</g>
</svg>
