<svg width="196" height="51" viewBox="0 0 196 51" fill="none" xmlns="http://www.w3.org/2000/svg">
<path d="M50.264 5.90399L41.304 50H33.496L25.368 13.072L17.176 50H9.55998L0.599976 5.90399H6.55198L13.656 44.688L22.168 5.90399H28.632L37.336 44.688L44.696 5.90399H50.264Z" fill="#D4D8E6"/>
<path d="M64.483 16.272V50H58.595V16.272H64.483ZM61.475 0.0799866C62.7123 0.0799866 63.715 0.463987 64.483 1.23199C65.251 1.99999 65.635 2.95999 65.635 4.11199C65.635 5.26399 65.251 6.22399 64.483 6.99199C63.715 7.71732 62.7123 8.07999 61.475 8.07999C60.2803 8.07999 59.299 7.71732 58.531 6.99199C57.763 6.22399 57.379 5.26399 57.379 4.11199C57.379 2.95999 57.763 1.99999 58.531 1.23199C59.299 0.463987 60.2803 0.0799866 61.475 0.0799866Z" fill="#D4D8E6"/>
<path d="M84.0175 50.768C81.8415 50.768 80.1135 50.128 78.8335 48.848C77.5961 47.5253 76.9775 45.6907 76.9775 43.344V2.70399L82.8655 1.99998V43.216C82.8655 44.1547 83.0148 44.8373 83.3135 45.264C83.6548 45.6907 84.2095 45.904 84.9775 45.904C85.7881 45.904 86.5135 45.776 87.1535 45.52L88.6895 49.616C87.2815 50.384 85.7241 50.768 84.0175 50.768Z" fill="#D4D8E6"/>
<path d="M103.407 50.768C101.231 50.768 99.5035 50.128 98.2235 48.848C96.9861 47.5253 96.3675 45.6907 96.3675 43.344V2.70399L102.255 1.99998V43.216C102.255 44.1547 102.405 44.8373 102.703 45.264C103.045 45.6907 103.599 45.904 104.367 45.904C105.178 45.904 105.903 45.776 106.543 45.52L108.079 49.616C106.671 50.384 105.114 50.768 103.407 50.768Z" fill="#D4D8E6"/>
<path d="M121.965 16.272V50H116.077V16.272H121.965ZM118.957 0.0799866C120.195 0.0799866 121.197 0.463987 121.965 1.23199C122.733 1.99999 123.117 2.95999 123.117 4.11199C123.117 5.26399 122.733 6.22399 121.965 6.99199C121.197 7.71732 120.195 8.07999 118.957 8.07999C117.763 8.07999 116.781 7.71732 116.013 6.99199C115.245 6.22399 114.861 5.26399 114.861 4.11199C114.861 2.95999 115.245 1.99999 116.013 1.23199C116.781 0.463987 117.763 0.0799866 118.957 0.0799866Z" fill="#D4D8E6"/>
<path d="M160.252 32.144C160.252 33.1253 160.209 34.128 160.124 35.152H138.62C138.876 38.864 139.815 41.5947 141.436 43.344C143.057 45.0933 145.148 45.968 147.708 45.968C149.329 45.968 150.823 45.7333 152.188 45.264C153.553 44.7947 154.983 44.048 156.476 43.024L159.036 46.544C155.452 49.36 151.527 50.768 147.26 50.768C142.567 50.768 138.897 49.232 136.252 46.16C133.649 43.088 132.348 38.864 132.348 33.488C132.348 29.9893 132.903 26.896 134.012 24.208C135.164 21.4773 136.785 19.344 138.876 17.808C141.009 16.272 143.505 15.504 146.364 15.504C150.844 15.504 154.279 16.976 156.668 19.92C159.057 22.864 160.252 26.9387 160.252 32.144ZM154.428 30.416C154.428 27.088 153.767 24.5493 152.444 22.8C151.121 21.0507 149.137 20.176 146.492 20.176C141.671 20.176 139.047 23.7173 138.62 30.8H154.428V30.416Z" fill="#D4D8E6"/>
<path d="M186.167 15.504C189.239 15.504 191.628 16.4213 193.335 18.256C195.084 20.0907 195.959 22.608 195.959 25.808V50H190.071V26.64C190.071 24.2507 189.623 22.5653 188.727 21.584C187.831 20.6027 186.508 20.112 184.759 20.112C182.967 20.112 181.388 20.624 180.023 21.648C178.658 22.672 177.378 24.144 176.183 26.064V50H170.295V16.272H175.351L175.863 21.264C177.058 19.472 178.53 18.064 180.279 17.04C182.071 16.016 184.034 15.504 186.167 15.504Z" fill="#D4D8E6"/>
</svg>
